<svg viewBox="616.7683855421686 314.33622 200.99161445783133 180.32453999999998" version="1.0" preserveAspectRatio="xMidYMid meet" zoomAndPan="magnify" xmlns:xlink="http://www.w3.org/1999/xlink" xmlns="http://www.w3.org/2000/svg" style="max-height: 500px" width="200.99161445783133" height="180.32453999999998"><defs><clipPath id="b5ae1e5edc"><path clip-rule="nonzero" d="M 620.980469 348.691406 L 764.980469 348.691406 L 764.980469 492.691406 L 620.980469 492.691406 Z M 620.980469 348.691406"/></clipPath><clipPath id="a1e8def5e2"><path clip-rule="nonzero" d="M 692.980469 348.691406 C 653.214844 348.691406 620.980469 380.929688 620.980469 420.691406 C 620.980469 460.457031 653.214844 492.691406 692.980469 492.691406 C 732.742188 492.691406 764.980469 460.457031 764.980469 420.691406 C 764.980469 380.929688 732.742188 348.691406 692.980469 348.691406 Z M 692.980469 348.691406"/></clipPath><clipPath id="914016652b"><path clip-rule="nonzero" d="M 0.980469 0.691406 L 144.980469 0.691406 L 144.980469 144.691406 L 0.980469 144.691406 Z M 0.980469 0.691406"/></clipPath><clipPath id="b966419ad3"><path clip-rule="nonzero" d="M 72.980469 0.691406 C 33.214844 0.691406 0.980469 32.929688 0.980469 72.691406 C 0.980469 112.457031 33.214844 144.691406 72.980469 144.691406 C 112.742188 144.691406 144.980469 112.457031 144.980469 72.691406 C 144.980469 32.929688 112.742188 0.691406 72.980469 0.691406 Z M 72.980469 0.691406"/></clipPath><clipPath id="712188f199"><rect height="145" y="0" width="145" x="0"/></clipPath><clipPath id="27ad99f8ca"><path clip-rule="nonzero" d="M 637.667969 365.378906 L 748.292969 365.378906 L 748.292969 476.003906 L 637.667969 476.003906 Z M 637.667969 365.378906"/></clipPath><clipPath id="55dd37c3f4"><path clip-rule="nonzero" d="M 692.980469 365.378906 C 662.429688 365.378906 637.667969 390.144531 637.667969 420.691406 C 637.667969 451.242188 662.429688 476.003906 692.980469 476.003906 C 723.527344 476.003906 748.292969 451.242188 748.292969 420.691406 C 748.292969 390.144531 723.527344 365.378906 692.980469 365.378906 Z M 692.980469 365.378906"/></clipPath><clipPath id="af31a4ae00"><path clip-rule="nonzero" d="M 0.667969 0.378906 L 111.292969 0.378906 L 111.292969 111.003906 L 0.667969 111.003906 Z M 0.667969 0.378906"/></clipPath><clipPath id="12125e2516"><path clip-rule="nonzero" d="M 55.980469 0.378906 C 25.429688 0.378906 0.667969 25.144531 0.667969 55.691406 C 0.667969 86.242188 25.429688 111.003906 55.980469 111.003906 C 86.527344 111.003906 111.292969 86.242188 111.292969 55.691406 C 111.292969 25.144531 86.527344 0.378906 55.980469 0.378906 Z M 55.980469 0.378906"/></clipPath><clipPath id="e152cf0425"><rect height="112" y="0" width="112" x="0"/></clipPath><clipPath id="cc792e3459"><path clip-rule="nonzero" d="M 645.097656 342 L 795.847656 342 L 795.847656 458 L 645.097656 458 Z M 645.097656 342"/></clipPath><clipPath id="6e8c479e08"><path clip-rule="nonzero" d="M 735.40625 316.664062 L 817.761719 316.664062 L 817.761719 395.039062 L 735.40625 395.039062 Z M 735.40625 316.664062"/></clipPath><clipPath id="b189d16c1d"><path clip-rule="nonzero" d="M 776.519531 316.664062 L 786.226562 346.601562 L 817.636719 346.601562 L 792.226562 365.101562 L 801.929688 395.039062 L 776.519531 376.539062 L 751.109375 395.039062 L 760.816406 365.101562 L 735.40625 346.601562 L 766.816406 346.601562 Z M 776.519531 316.664062"/></clipPath><clipPath id="fa4667919c"><path clip-rule="nonzero" d="M 0.40625 0.664062 L 82.679688 0.664062 L 82.679688 79.039062 L 0.40625 79.039062 Z M 0.40625 0.664062"/></clipPath><clipPath id="3d0b901e9f"><path clip-rule="nonzero" d="M 41.519531 0.664062 L 51.226562 30.601562 L 82.636719 30.601562 L 57.226562 49.101562 L 66.929688 79.039062 L 41.519531 60.539062 L 16.109375 79.039062 L 25.816406 49.101562 L 0.40625 30.601562 L 31.816406 30.601562 Z M 41.519531 0.664062"/></clipPath><clipPath id="97d08dc486"><rect height="80" y="0" width="83" x="0"/></clipPath></defs><g clip-path="url(#b5ae1e5edc)"><g clip-path="url(#a1e8def5e2)"><g transform="matrix(1, 0, 0, 1, 620, 348)"><g clip-path="url(#712188f199)"><g clip-path="url(#914016652b)"><g clip-path="url(#b966419ad3)"><path fill-rule="nonzero" fill-opacity="1" d="M 0.980469 0.691406 L 144.980469 0.691406 L 144.980469 144.691406 L 0.980469 144.691406 Z M 0.980469 0.691406" fill="#fcd99c"/></g></g></g></g></g></g><g clip-path="url(#27ad99f8ca)"><g clip-path="url(#55dd37c3f4)"><g transform="matrix(1, 0, 0, 1, 637, 365)"><g clip-path="url(#e152cf0425)"><g clip-path="url(#af31a4ae00)"><g clip-path="url(#12125e2516)"><path fill-rule="nonzero" fill-opacity="1" d="M 0.667969 0.378906 L 111.292969 0.378906 L 111.292969 111.003906 L 0.667969 111.003906 Z M 0.667969 0.378906" fill="#fcd99c"/></g></g></g></g><path stroke-miterlimit="4" stroke-opacity="1" stroke-width="8" stroke="#eacd9a" d="M 73.751181 -0.00207276 C 33.016803 -0.00207276 0.00117681 33.018762 0.00117681 73.747931 C 0.00117681 114.482308 33.016803 147.497935 73.751181 147.497935 C 114.480349 147.497935 147.501184 114.482308 147.501184 73.747931 C 147.501184 33.018762 114.480349 -0.00207276 73.751181 -0.00207276 Z M 73.751181 -0.00207276" stroke-linejoin="miter" fill="none" transform="matrix(0.75, 0, 0, 0.75, 637.667086, 365.380461)" stroke-linecap="butt"/></g></g><g clip-path="url(#cc792e3459)"><path fill-rule="nonzero" fill-opacity="1" d="M 693.160156 433.222656 L 657.371094 397.433594 L 645.226562 409.578125 L 693.160156 457.511719 L 796.152344 354.519531 L 784.007812 342.375 Z M 693.160156 433.222656" fill="#ec7357"/></g><g clip-path="url(#6e8c479e08)"><g clip-path="url(#b189d16c1d)"><g transform="matrix(1, 0, 0, 1, 735, 316)"><g clip-path="url(#97d08dc486)"><g clip-path="url(#fa4667919c)"><g clip-path="url(#3d0b901e9f)"><path fill-rule="nonzero" fill-opacity="1" d="M 0.40625 0.664062 L 82.761719 0.664062 L 82.761719 79.039062 L 0.40625 79.039062 Z M 0.40625 0.664062" fill="#ec7357"/></g></g></g></g></g></g></svg>